<svg xmlns="http://www.w3.org/2000/svg" xmlns:xlink="http://www.w3.org/1999/xlink" width="500" zoomAndPan="magnify" viewBox="0 0 375 374.999991" height="500" preserveAspectRatio="xMidYMid meet" version="1.0"><defs><clipPath id="d59b33637c"><path d="M 0 66.925781 L 375 66.925781 L 375 303 L 0 303 Z M 0 66.925781 " clip-rule="nonzero"/></clipPath></defs><g clip-path="url(#d59b33637c)"><path fill="#000000" d="M 75.015625 66.925781 L 82.332031 66.925781 L 88.277344 67.527344 C 88.355469 67.539062 88.433594 67.5625 88.507812 67.59375 C 88.867188 67.773438 89.511719 67.925781 90.445312 68.058594 C 93.945312 68.554688 97.574219 69.941406 101.324219 72.21875 C 107.027344 75.683594 108.421875 82.046875 107.773438 88.390625 C 107.703125 89.125 107.761719 89.546875 108.402344 90.007812 C 112.386719 92.855469 116.0625 95.953125 119.433594 99.292969 C 119.640625 99.496094 119.886719 99.597656 120.171875 99.597656 L 253.988281 99.597656 C 254.441406 99.597656 254.828125 99.433594 255.144531 99.109375 C 258.328125 95.863281 261.78125 92.933594 265.5 90.3125 C 265.851562 90.0625 266.023438 89.726562 266.019531 89.296875 C 266.015625 86.175781 265.699219 82.46875 266.597656 79.695312 C 269.886719 69.53125 284.273438 67.480469 293.292969 66.925781 L 299.082031 66.925781 C 308.328125 67.738281 320.542969 69.183594 324.476562 79.207031 C 325.625 82.136719 325.304688 86.328125 325.488281 89.65625 C 325.5 89.839844 325.578125 89.988281 325.730469 90.101562 C 336.4375 98.007812 344.023438 107.199219 348.175781 119.875 C 348.914062 122.117188 349.761719 125.710938 350.71875 130.652344 C 358.203125 169.214844 365.738281 207.765625 373.328125 246.3125 C 374.027344 249.863281 374.566406 253.4375 374.957031 257.046875 L 374.957031 261.054688 C 373.601562 280.933594 360.511719 297.71875 340.832031 302.023438 C 338.28125 302.582031 335.574219 302.699219 332.890625 302.832031 L 331.648438 302.832031 C 319.199219 301.945312 307.78125 294.492188 301.617188 283.644531 C 290.148438 263.453125 278.847656 243.164062 267.71875 222.777344 C 267.683594 222.714844 267.625 222.675781 267.550781 222.664062 C 267.480469 222.652344 267.414062 222.671875 267.359375 222.722656 C 257.417969 232.007812 246 236.40625 232.5625 233.6875 C 221.972656 231.550781 213.550781 224.378906 208.121094 215.269531 C 207.929688 214.945312 207.644531 214.78125 207.261719 214.78125 L 165.808594 214.78125 C 165.515625 214.78125 165.292969 214.90625 165.136719 215.152344 C 157.398438 227.574219 146.03125 235.0625 131.328125 234.375 C 121.78125 233.929688 113.175781 229.882812 106.761719 222.789062 C 106.710938 222.734375 106.652344 222.691406 106.582031 222.667969 C 106.511719 222.640625 106.4375 222.628906 106.363281 222.640625 C 106.289062 222.648438 106.222656 222.671875 106.160156 222.714844 C 106.097656 222.753906 106.050781 222.808594 106.015625 222.871094 C 94.738281 243.15625 83.503906 263.417969 72.3125 283.660156 C 61.355469 303.464844 37.359375 308.4375 18.945312 295.542969 C 8.03125 287.90625 1.734375 277.40625 0.0429688 264.046875 L 0.0429688 255.589844 C 0.328125 252.75 0.648438 250.40625 1.007812 248.5625 C 8.5 209.820312 15.945312 171.070312 23.335938 132.308594 C 24.34375 127.035156 25.125 123.433594 25.6875 121.5 C 29.367188 108.808594 36.671875 98.597656 47.59375 90.863281 C 47.972656 90.597656 48.160156 90.230469 48.152344 89.769531 C 48.125 87.679688 48.195312 85.550781 48.367188 83.386719 C 49.417969 70.042969 64.585938 67.855469 75.015625 66.925781 Z M 297.316406 122.960938 C 298.082031 122.859375 298.828125 122.679688 299.5625 122.425781 C 300.292969 122.175781 300.992188 121.851562 301.660156 121.457031 C 302.328125 121.0625 302.949219 120.605469 303.53125 120.085938 C 304.109375 119.566406 304.632812 118.992188 305.101562 118.367188 C 305.570312 117.738281 305.972656 117.074219 306.3125 116.367188 C 306.652344 115.65625 306.917969 114.921875 307.117188 114.160156 C 307.3125 113.398438 307.433594 112.621094 307.480469 111.835938 C 307.527344 111.046875 307.5 110.261719 307.394531 109.480469 C 307.292969 108.695312 307.113281 107.929688 306.863281 107.183594 C 306.609375 106.433594 306.289062 105.71875 305.898438 105.035156 C 305.511719 104.351562 305.058594 103.710938 304.546875 103.117188 C 304.035156 102.523438 303.46875 101.988281 302.855469 101.503906 C 302.238281 101.023438 301.582031 100.609375 300.890625 100.257812 C 300.195312 99.910156 299.472656 99.632812 298.722656 99.425781 C 297.976562 99.222656 297.21875 99.09375 296.445312 99.039062 C 295.671875 98.988281 294.902344 99.011719 294.136719 99.117188 C 293.371094 99.21875 292.625 99.394531 291.890625 99.648438 C 291.160156 99.902344 290.460938 100.226562 289.792969 100.621094 C 289.125 101.015625 288.5 101.472656 287.921875 101.992188 C 287.34375 102.511719 286.820312 103.085938 286.351562 103.710938 C 285.882812 104.335938 285.480469 105.003906 285.140625 105.710938 C 284.800781 106.417969 284.535156 107.152344 284.335938 107.917969 C 284.140625 108.679688 284.019531 109.453125 283.972656 110.242188 C 283.925781 111.03125 283.953125 111.816406 284.058594 112.597656 C 284.160156 113.378906 284.339844 114.144531 284.589844 114.894531 C 284.84375 115.640625 285.164062 116.355469 285.554688 117.042969 C 285.941406 117.726562 286.394531 118.363281 286.90625 118.957031 C 287.417969 119.550781 287.984375 120.089844 288.597656 120.570312 C 289.214844 121.050781 289.867188 121.46875 290.5625 121.816406 C 291.257812 122.167969 291.980469 122.445312 292.726562 122.648438 C 293.476562 122.855469 294.234375 122.984375 295.007812 123.035156 C 295.78125 123.089844 296.546875 123.0625 297.316406 122.960938 Z M 52.113281 129.074219 C 51.683594 129.433594 51.46875 129.890625 51.46875 130.449219 L 51.46875 143.640625 C 51.46875 143.851562 51.527344 144.046875 51.636719 144.226562 C 52.714844 145.96875 53.996094 146.589844 56.148438 146.601562 C 60.882812 146.636719 65.632812 146.667969 70.398438 146.683594 C 70.59375 146.683594 70.691406 146.78125 70.691406 146.976562 L 70.875 163.921875 C 70.875 164.039062 70.90625 164.144531 70.972656 164.238281 C 72.039062 165.796875 73.214844 166.433594 75.21875 166.441406 C 77.84375 166.453125 80.460938 166.496094 83.066406 166.570312 C 86.257812 166.660156 89.195312 166.027344 89.128906 162.324219 C 89.03125 157.1875 89.023438 152.058594 89.105469 146.933594 C 89.109375 146.746094 89.203125 146.648438 89.394531 146.644531 C 94.003906 146.519531 98.617188 146.535156 103.234375 146.691406 C 104.300781 146.730469 106.632812 146.097656 107.285156 145.25 C 108.6875 143.433594 108.039062 138.703125 108.035156 136.800781 C 108.023438 133.21875 109.480469 127.933594 103.851562 127.878906 C 98.9375 127.832031 94.140625 127.820312 89.460938 127.851562 C 89.285156 127.851562 89.136719 127.792969 89.011719 127.675781 C 88.890625 127.554688 88.824219 127.410156 88.816406 127.234375 C 88.625 121.972656 88.523438 116.722656 88.511719 111.492188 C 88.507812 108.878906 86.734375 107.234375 84.1875 107.261719 C 80.890625 107.300781 77.601562 107.351562 74.320312 107.40625 C 72.105469 107.445312 70.347656 108.585938 70.226562 111.015625 C 69.976562 116.023438 70.347656 120.339844 70.226562 127.523438 C 70.222656 127.71875 70.125 127.820312 69.929688 127.824219 C 65.316406 127.859375 60.746094 127.867188 56.214844 127.839844 C 54.550781 127.828125 53.285156 128.101562 52.113281 129.074219 Z M 266.589844 151.550781 C 267.363281 151.539062 268.128906 151.449219 268.882812 151.285156 C 269.640625 151.117188 270.371094 150.878906 271.082031 150.566406 C 271.789062 150.253906 272.464844 149.875 273.097656 149.425781 C 273.734375 148.980469 274.320312 148.472656 274.859375 147.90625 C 275.398438 147.339844 275.875 146.726562 276.292969 146.066406 C 276.714844 145.40625 277.066406 144.707031 277.351562 143.976562 C 277.632812 143.242188 277.847656 142.492188 277.984375 141.714844 C 278.125 140.941406 278.1875 140.160156 278.175781 139.371094 C 278.160156 138.585938 278.074219 137.804688 277.910156 137.035156 C 277.75 136.265625 277.511719 135.519531 277.207031 134.796875 C 276.898438 134.074219 276.523438 133.386719 276.085938 132.742188 C 275.644531 132.09375 275.148438 131.496094 274.59375 130.945312 C 274.039062 130.398438 273.433594 129.910156 272.785156 129.484375 C 272.136719 129.054688 271.453125 128.695312 270.734375 128.40625 C 270.015625 128.117188 269.273438 127.898438 268.515625 127.757812 C 267.753906 127.617188 266.988281 127.550781 266.214844 127.5625 C 265.441406 127.578125 264.675781 127.664062 263.921875 127.832031 C 263.167969 127.996094 262.433594 128.234375 261.722656 128.546875 C 261.015625 128.859375 260.34375 129.242188 259.707031 129.6875 C 259.070312 130.136719 258.484375 130.640625 257.945312 131.207031 C 257.410156 131.773438 256.929688 132.386719 256.511719 133.046875 C 256.089844 133.710938 255.738281 134.40625 255.457031 135.140625 C 255.171875 135.871094 254.960938 136.625 254.820312 137.398438 C 254.683594 138.175781 254.617188 138.957031 254.632812 139.742188 C 254.644531 140.53125 254.730469 141.308594 254.894531 142.078125 C 255.058594 142.847656 255.292969 143.59375 255.597656 144.316406 C 255.90625 145.042969 256.28125 145.726562 256.71875 146.375 C 257.160156 147.023438 257.65625 147.621094 258.210938 148.167969 C 258.765625 148.71875 259.371094 149.203125 260.019531 149.632812 C 260.667969 150.058594 261.351562 150.417969 262.070312 150.707031 C 262.789062 151 263.53125 151.214844 264.289062 151.355469 C 265.050781 151.5 265.816406 151.5625 266.589844 151.550781 Z M 325.824219 151.613281 C 326.597656 151.605469 327.363281 151.523438 328.125 151.359375 C 328.882812 151.199219 329.617188 150.964844 330.328125 150.65625 C 331.042969 150.347656 331.71875 149.972656 332.359375 149.527344 C 333 149.082031 333.589844 148.578125 334.132812 148.015625 C 334.675781 147.449219 335.160156 146.835938 335.585938 146.175781 C 336.007812 145.515625 336.367188 144.820312 336.65625 144.085938 C 336.945312 143.351562 337.164062 142.597656 337.308594 141.820312 C 337.453125 141.046875 337.519531 140.261719 337.511719 139.472656 C 337.507812 138.679688 337.425781 137.898438 337.265625 137.125 C 337.109375 136.351562 336.878906 135.601562 336.574219 134.871094 C 336.273438 134.144531 335.902344 133.453125 335.46875 132.800781 C 335.03125 132.148438 334.539062 131.542969 333.984375 130.988281 C 333.433594 130.433594 332.832031 129.941406 332.183594 129.507812 C 331.535156 129.074219 330.855469 128.707031 330.136719 128.414062 C 329.417969 128.117188 328.679688 127.894531 327.917969 127.746094 C 327.15625 127.597656 326.390625 127.527344 325.613281 127.535156 C 324.839844 127.542969 324.074219 127.625 323.316406 127.785156 C 322.558594 127.949219 321.820312 128.183594 321.109375 128.492188 C 320.394531 128.800781 319.71875 129.175781 319.078125 129.621094 C 318.441406 130.066406 317.847656 130.570312 317.304688 131.132812 C 316.761719 131.699219 316.277344 132.3125 315.855469 132.972656 C 315.429688 133.632812 315.074219 134.328125 314.78125 135.0625 C 314.492188 135.796875 314.277344 136.550781 314.132812 137.328125 C 313.988281 138.101562 313.917969 138.886719 313.925781 139.675781 C 313.933594 140.46875 314.015625 141.25 314.171875 142.023438 C 314.328125 142.796875 314.558594 143.546875 314.863281 144.277344 C 315.164062 145.003906 315.535156 145.695312 315.972656 146.347656 C 316.40625 147 316.902344 147.605469 317.453125 148.160156 C 318.007812 148.714844 318.605469 149.207031 319.253906 149.640625 C 319.902344 150.074219 320.585938 150.441406 321.304688 150.734375 C 322.019531 151.03125 322.761719 151.253906 323.519531 151.402344 C 324.28125 151.550781 325.050781 151.621094 325.824219 151.613281 Z M 229.921875 141.960938 C 229.921875 141.648438 229.890625 141.335938 229.828125 141.027344 C 229.769531 140.71875 229.675781 140.417969 229.554688 140.128906 C 229.433594 139.839844 229.289062 139.5625 229.113281 139.300781 C 228.9375 139.039062 228.738281 138.800781 228.515625 138.578125 C 228.292969 138.355469 228.050781 138.15625 227.789062 137.984375 C 227.527344 137.808594 227.253906 137.660156 226.960938 137.542969 C 226.671875 137.421875 226.375 137.332031 226.066406 137.269531 C 225.757812 137.210938 225.445312 137.179688 225.132812 137.179688 L 210.433594 137.207031 C 210.121094 137.207031 209.808594 137.238281 209.5 137.300781 C 209.191406 137.363281 208.894531 137.453125 208.605469 137.574219 C 208.3125 137.695312 208.039062 137.84375 207.777344 138.019531 C 207.515625 138.191406 207.277344 138.390625 207.054688 138.613281 C 206.832031 138.835938 206.632812 139.078125 206.460938 139.339844 C 206.285156 139.601562 206.140625 139.878906 206.019531 140.171875 C 205.898438 140.460938 205.808594 140.761719 205.75 141.070312 C 205.6875 141.378906 205.660156 141.691406 205.660156 142.003906 L 205.660156 142.4375 C 205.660156 142.75 205.691406 143.0625 205.753906 143.371094 C 205.816406 143.679688 205.90625 143.976562 206.027344 144.269531 C 206.148438 144.558594 206.296875 144.835938 206.46875 145.097656 C 206.644531 145.355469 206.84375 145.597656 207.066406 145.820312 C 207.289062 146.042969 207.53125 146.242188 207.792969 146.414062 C 208.054688 146.589844 208.328125 146.738281 208.621094 146.855469 C 208.910156 146.976562 209.210938 147.066406 209.519531 147.128906 C 209.824219 147.1875 210.136719 147.21875 210.453125 147.21875 L 225.148438 147.191406 C 225.464844 147.191406 225.773438 147.160156 226.082031 147.097656 C 226.390625 147.035156 226.6875 146.945312 226.980469 146.824219 C 227.269531 146.703125 227.542969 146.554688 227.804688 146.378906 C 228.066406 146.207031 228.308594 146.007812 228.527344 145.785156 C 228.75 145.558594 228.949219 145.316406 229.121094 145.054688 C 229.296875 144.792969 229.441406 144.519531 229.5625 144.226562 C 229.683594 143.9375 229.773438 143.636719 229.832031 143.328125 C 229.894531 143.019531 229.925781 142.707031 229.925781 142.394531 Z M 148.519531 137.382812 C 143.5625 137.46875 142.554688 143.972656 146.316406 146.351562 C 147.1875 146.90625 148.625 147.191406 150.628906 147.207031 C 154.980469 147.234375 159.335938 147.195312 163.6875 147.082031 C 170.152344 146.917969 169.527344 137.230469 163.585938 137.238281 C 158.558594 137.246094 153.539062 137.292969 148.519531 137.382812 Z M 297.804688 156.183594 C 290.515625 154.703125 283.082031 161.261719 283.921875 168.917969 C 284.660156 175.65625 289.96875 180.78125 297.082031 180.066406 C 310.375 178.738281 311.363281 158.929688 297.804688 156.183594 Z M 136.203125 166.410156 C 123.210938 164.101562 110.898438 174.75 110.097656 187.621094 C 109.320312 200.167969 118.261719 211.097656 130.960938 212.183594 C 146.90625 213.546875 159.269531 198.023438 154.679688 182.628906 C 152.117188 174.03125 144.933594 167.960938 136.203125 166.410156 Z M 217.503906 186.539062 C 215.238281 207.09375 239.296875 220.542969 255.195312 206.570312 C 270.152344 193.421875 262.421875 168.601562 242.6875 166.289062 C 230.304688 164.832031 218.886719 174.023438 217.503906 186.539062 Z M 217.503906 186.539062 " fill-opacity="1" fill-rule="nonzero"/></g></svg>